<svg xmlns="http://www.w3.org/2000/svg" width="1000" height="200" viewBox="0 0 1000 200">
  <defs>
    <style>
      .cls-1 {
        fill: #fff;
      }

      .cls-1, .cls-2, .cls-3 {
        fill-rule: evenodd;
      }

      .cls-2 {
        fill: #666;
      }

      .cls-3 {
        fill: #ccc;
      }
    </style>
  </defs>
  <path id="arrow_down" data-name="arrow down" class="cls-1" d="M48.015,56.516L35,43.479,36.476,42,49.49,55.04,62.524,42,64,43.479,49.49,57.993h0l-1.259-1.261-0.215-.215h0Z"/>
  <path id="arrow_down_copy" data-name="arrow down copy" class="cls-2" d="M148.015,56.516L135,43.479,136.476,42,149.49,55.04,162.524,42,164,43.479,149.49,57.993h0l-1.259-1.261-0.215-.215h0Z"/>
  <path id="arrow_right" data-name="arrow right" class="cls-3" d="M258.428,48.627a0.294,0.294,0,0,0-.026-0.021L244.271,34.549a1.936,1.936,0,0,0-2.728,0,1.911,1.911,0,0,0,0,2.714l12.789,12.722L241.543,62.707a1.911,1.911,0,0,0,0,2.714,1.936,1.936,0,0,0,2.728,0l14.141-14.065,0.015-.012A1.918,1.918,0,0,0,258.428,48.627Z"/>
  <path id="arrow_right_copy" data-name="arrow right copy" class="cls-2" d="M358.428,48.627a0.294,0.294,0,0,0-.026-0.021L344.271,34.549a1.936,1.936,0,0,0-2.728,0,1.911,1.911,0,0,0,0,2.714l12.789,12.722L341.543,62.707a1.911,1.911,0,0,0,0,2.714,1.936,1.936,0,0,0,2.728,0l14.141-14.065,0.015-.012A1.915,1.915,0,0,0,358.428,48.627Z"/>
  <path id="arrow_right_copy_2" data-name="arrow right copy 2" class="cls-3" d="M441.572,48.627a0.294,0.294,0,0,1,.026-0.021l14.131-14.057a1.936,1.936,0,0,1,2.728,0,1.911,1.911,0,0,1,0,2.714L445.668,49.985l12.789,12.721a1.911,1.911,0,0,1,0,2.714,1.936,1.936,0,0,1-2.728,0L441.588,51.357l-0.015-.012A1.915,1.915,0,0,1,441.572,48.627Z"/>
  <path id="_" data-name="“" class="cls-1" d="M47.672,140.526q-1.083.666-2.69,1.719a17.168,17.168,0,0,0-3.039,2.562,14.736,14.736,0,0,0-2.376,3.351,8.86,8.86,0,0,0-.978,4.158,9.4,9.4,0,0,0,1.293,5.211,4.739,4.739,0,0,0,4.3,1.983,3.77,3.77,0,0,0,3.022-1.283,4.169,4.169,0,0,0,1.1-2.76,3.936,3.936,0,0,0-1.24-3.147,5.041,5.041,0,0,0-3.406-1.072H41.978a10.1,10.1,0,0,1,.734-2.978,8.245,8.245,0,0,1,1.5-2.208,12.26,12.26,0,0,1,2.061-1.8q1.013-.684,2.655-1.63Zm12.926,0q-1.083.666-2.69,1.719a17.172,17.172,0,0,0-3.039,2.562,14.736,14.736,0,0,0-2.376,3.351,8.86,8.86,0,0,0-.978,4.158,9.4,9.4,0,0,0,1.293,5.211,4.739,4.739,0,0,0,4.3,1.983,3.77,3.77,0,0,0,3.022-1.283,4.169,4.169,0,0,0,1.1-2.76,3.936,3.936,0,0,0-1.24-3.147,5.041,5.041,0,0,0-3.406-1.072H54.9a10.3,10.3,0,0,1,.716-2.961,8.126,8.126,0,0,1,1.52-2.225,12.269,12.269,0,0,1,2.061-1.8q1.013-.684,2.655-1.63Z"/>
  <path id="_2" data-name="”" class="cls-1" d="M147.2,142.371a4.7,4.7,0,0,0-4.262-1.986,3.824,3.824,0,0,0-3.039,1.283,4.09,4.09,0,0,0-1.118,2.725A4.037,4.037,0,0,0,140,147.522a4.866,4.866,0,0,0,3.423,1.125H145.1a8.316,8.316,0,0,1-.7,3.006,9.679,9.679,0,0,1-1.5,2.2,10.5,10.5,0,0,1-2.009,1.705q-1.309.9-2.742,1.74l1.188,2.074a28.377,28.377,0,0,0,2.69-1.67,19.7,19.7,0,0,0,3.074-2.584,14.428,14.428,0,0,0,2.376-3.322,8.923,8.923,0,0,0,1.013-4.236A9.364,9.364,0,0,0,147.2,142.371Zm12.927,0a4.7,4.7,0,0,0-4.263-1.986,3.824,3.824,0,0,0-3.039,1.283,4.09,4.09,0,0,0-1.118,2.725,4.037,4.037,0,0,0,1.223,3.129,4.868,4.868,0,0,0,3.424,1.125h1.677a8.358,8.358,0,0,1-.7,3.006,9.745,9.745,0,0,1-1.5,2.2,10.567,10.567,0,0,1-2.009,1.705q-1.311.9-2.743,1.74l1.188,2.074a28.377,28.377,0,0,0,2.69-1.67,19.71,19.71,0,0,0,3.075-2.584,14.425,14.425,0,0,0,2.375-3.322,8.923,8.923,0,0,0,1.013-4.236A9.372,9.372,0,0,0,160.123,142.371Z"/>
  <path id="arrow_right_copy_2-2" data-name="arrow right copy 2" class="cls-2" d="M541.572,48.627a0.294,0.294,0,0,1,.026-0.021l14.131-14.057a1.936,1.936,0,0,1,2.728,0,1.911,1.911,0,0,1,0,2.714L545.668,49.985l12.789,12.721a1.911,1.911,0,0,1,0,2.714,1.936,1.936,0,0,1-2.728,0L541.588,51.357l-0.015-.012A1.918,1.918,0,0,1,541.572,48.627Z"/>
  <path id="menu_icon" data-name="menu icon" class="cls-1" d="M637,42h24v2H637V42Zm0,7h24v2H637V49Zm0,7h24v2H637V56Z"/>
  <path id="menu_icon_copy" data-name="menu icon copy" class="cls-2" d="M737,42h24v2H737V42Zm0,7h24v2H737V49Zm0,7h24v2H737V56Z"/>
  <path id="Share" class="cls-2" d="M233.844,140.7v31.438h31.313V140.7H254.105v-1.849H267v35.136H232V138.851H244.9V140.7H233.844Zm14.735-13.869h1.842v29.588h-1.842V126.831Zm9.2,6.874-0.761.732a0.413,0.413,0,0,1-.6.009l-7.037-7.066a0.456,0.456,0,0,1,.009-0.625l0.762-.731a0.411,0.411,0,0,1,.6-0.01l7.038,7.066A0.456,0.456,0,0,1,257.775,133.705Zm-15.376.622-0.694-.743a0.461,0.461,0,0,1-.01-0.632l7.725-7.852a0.415,0.415,0,0,1,.605.01l0.695,0.743a0.461,0.461,0,0,1,.009.632l-7.724,7.852A0.416,0.416,0,0,1,242.4,134.327Z"/>
  <path id="arrow_down-2" data-name="arrow down" class="cls-1" d="M845.683,62.246L821,37.775,823.8,35l24.683,24.472L873.2,35l2.8,2.771L848.481,65.018v0l0,0L846.09,62.65l-0.407-.4h0Z"/>
</svg>
